<mxfile host="app.diagrams.net" modified="2020-11-09T22:55:59.966Z" agent="5.0 (X11)" etag="RFR1r27yyXFvLh57oM3W" compressed="false" version="13.9.2" type="github" pages="3">
  <diagram id="goMS0h8xUsacC6_yaoDL" name="Page-1">
    <mxGraphModel dx="1185" dy="669" grid="1" gridSize="10" guides="1" tooltips="1" connect="1" arrows="1" fold="1" page="1" pageScale="1" pageWidth="1169" pageHeight="827" background="#FFFFFF" math="0" shadow="0">
      <root>
        <mxCell id="0" />
        <mxCell id="1" parent="0" />
        <mxCell id="-XS6p72eoRINmu8LK3qn-3" value="" style="rounded=0;whiteSpace=wrap;html=1;direction=south;" parent="1" vertex="1">
          <mxGeometry x="435" y="200" width="271" height="570" as="geometry" />
        </mxCell>
        <mxCell id="-XS6p72eoRINmu8LK3qn-4" value="Usuário" style="shape=umlActor;verticalLabelPosition=bottom;verticalAlign=top;html=1;outlineConnect=0;" parent="1" vertex="1">
          <mxGeometry x="310" y="425" width="70" height="120" as="geometry" />
        </mxCell>
        <mxCell id="-XS6p72eoRINmu8LK3qn-30" style="edgeStyle=orthogonalEdgeStyle;rounded=0;orthogonalLoop=1;jettySize=auto;html=1;exitX=0.5;exitY=1;exitDx=0;exitDy=0;entryX=0.5;entryY=0;entryDx=0;entryDy=0;" parent="1" source="-XS6p72eoRINmu8LK3qn-5" target="-XS6p72eoRINmu8LK3qn-6" edge="1">
          <mxGeometry relative="1" as="geometry" />
        </mxCell>
        <mxCell id="-XS6p72eoRINmu8LK3qn-5" value="Bicicleta para aluguel" style="ellipse;whiteSpace=wrap;html=1;fillColor=#f8cecc;strokeColor=#b85450;" parent="1" vertex="1">
          <mxGeometry x="487.5" y="220" width="166" height="90" as="geometry" />
        </mxCell>
        <mxCell id="-XS6p72eoRINmu8LK3qn-31" style="edgeStyle=orthogonalEdgeStyle;rounded=0;orthogonalLoop=1;jettySize=auto;html=1;exitX=0.5;exitY=1;exitDx=0;exitDy=0;entryX=0.5;entryY=0;entryDx=0;entryDy=0;" parent="1" source="-XS6p72eoRINmu8LK3qn-6" target="-XS6p72eoRINmu8LK3qn-7" edge="1">
          <mxGeometry relative="1" as="geometry" />
        </mxCell>
        <mxCell id="-XS6p72eoRINmu8LK3qn-6" value="Escolher ponto de desembarque" style="ellipse;whiteSpace=wrap;html=1;fillColor=#f5f5f5;strokeColor=#666666;fontColor=#333333;" parent="1" vertex="1">
          <mxGeometry x="487.5" y="330" width="166" height="90" as="geometry" />
        </mxCell>
        <mxCell id="-XS6p72eoRINmu8LK3qn-32" style="edgeStyle=orthogonalEdgeStyle;rounded=0;orthogonalLoop=1;jettySize=auto;html=1;exitX=0.5;exitY=1;exitDx=0;exitDy=0;" parent="1" source="-XS6p72eoRINmu8LK3qn-7" target="-XS6p72eoRINmu8LK3qn-8" edge="1">
          <mxGeometry relative="1" as="geometry" />
        </mxCell>
        <mxCell id="-XS6p72eoRINmu8LK3qn-7" value="Pagamento" style="ellipse;whiteSpace=wrap;html=1;fillColor=#f5f5f5;strokeColor=#666666;fontColor=#333333;" parent="1" vertex="1">
          <mxGeometry x="487.5" y="440" width="166" height="90" as="geometry" />
        </mxCell>
        <mxCell id="-XS6p72eoRINmu8LK3qn-33" style="edgeStyle=orthogonalEdgeStyle;rounded=0;orthogonalLoop=1;jettySize=auto;html=1;exitX=0.5;exitY=1;exitDx=0;exitDy=0;entryX=0.5;entryY=0;entryDx=0;entryDy=0;" parent="1" source="-XS6p72eoRINmu8LK3qn-8" target="-XS6p72eoRINmu8LK3qn-26" edge="1">
          <mxGeometry relative="1" as="geometry" />
        </mxCell>
        <mxCell id="-XS6p72eoRINmu8LK3qn-8" value="Login" style="ellipse;whiteSpace=wrap;html=1;fillColor=#f5f5f5;strokeColor=#666666;fontColor=#333333;" parent="1" vertex="1">
          <mxGeometry x="487.5" y="550" width="166" height="90" as="geometry" />
        </mxCell>
        <mxCell id="-XS6p72eoRINmu8LK3qn-10" value="" style="endArrow=classic;html=1;entryX=0;entryY=0.5;entryDx=0;entryDy=0;" parent="1" target="-XS6p72eoRINmu8LK3qn-5" edge="1">
          <mxGeometry width="50" height="50" relative="1" as="geometry">
            <mxPoint x="370" y="400" as="sourcePoint" />
            <mxPoint x="420" y="350" as="targetPoint" />
          </mxGeometry>
        </mxCell>
        <mxCell id="-XS6p72eoRINmu8LK3qn-11" value="Autenticação" style="shape=umlActor;verticalLabelPosition=bottom;verticalAlign=top;html=1;outlineConnect=0;" parent="1" vertex="1">
          <mxGeometry x="790" y="220" width="70" height="120" as="geometry" />
        </mxCell>
        <mxCell id="-XS6p72eoRINmu8LK3qn-13" value="Sistema de geolocalização" style="shape=umlActor;verticalLabelPosition=bottom;verticalAlign=top;html=1;outlineConnect=0;" parent="1" vertex="1">
          <mxGeometry x="790" y="400" width="70" height="120" as="geometry" />
        </mxCell>
        <mxCell id="-XS6p72eoRINmu8LK3qn-14" value="&lt;div&gt;Serviço de pagamento &lt;br&gt;&lt;/div&gt;&lt;div&gt;selecionado&lt;/div&gt;" style="shape=umlActor;verticalLabelPosition=bottom;verticalAlign=top;html=1;outlineConnect=0;" parent="1" vertex="1">
          <mxGeometry x="790" y="580" width="70" height="120" as="geometry" />
        </mxCell>
        <mxCell id="-XS6p72eoRINmu8LK3qn-16" value="" style="endArrow=classic;html=1;" parent="1" edge="1">
          <mxGeometry width="50" height="50" relative="1" as="geometry">
            <mxPoint x="400" y="540" as="sourcePoint" />
            <mxPoint x="487.5" y="590" as="targetPoint" />
          </mxGeometry>
        </mxCell>
        <mxCell id="-XS6p72eoRINmu8LK3qn-17" value="" style="endArrow=classic;html=1;exitX=1;exitY=0.5;exitDx=0;exitDy=0;" parent="1" source="-XS6p72eoRINmu8LK3qn-8" edge="1">
          <mxGeometry width="50" height="50" relative="1" as="geometry">
            <mxPoint x="653.5" y="645" as="sourcePoint" />
            <mxPoint x="770" y="330" as="targetPoint" />
          </mxGeometry>
        </mxCell>
        <mxCell id="-XS6p72eoRINmu8LK3qn-19" value="" style="endArrow=classic;html=1;entryX=0.913;entryY=0.222;entryDx=0;entryDy=0;entryPerimeter=0;" parent="1" target="-XS6p72eoRINmu8LK3qn-6" edge="1">
          <mxGeometry width="50" height="50" relative="1" as="geometry">
            <mxPoint x="770" y="260" as="sourcePoint" />
            <mxPoint x="500" y="400" as="targetPoint" />
          </mxGeometry>
        </mxCell>
        <mxCell id="-XS6p72eoRINmu8LK3qn-20" value="" style="endArrow=classic;html=1;" parent="1" source="-XS6p72eoRINmu8LK3qn-6" edge="1">
          <mxGeometry width="50" height="50" relative="1" as="geometry">
            <mxPoint x="640" y="450" as="sourcePoint" />
            <mxPoint x="760" y="430" as="targetPoint" />
          </mxGeometry>
        </mxCell>
        <mxCell id="-XS6p72eoRINmu8LK3qn-21" value="" style="endArrow=classic;html=1;entryX=1;entryY=0.5;entryDx=0;entryDy=0;" parent="1" target="-XS6p72eoRINmu8LK3qn-7" edge="1">
          <mxGeometry width="50" height="50" relative="1" as="geometry">
            <mxPoint x="760" y="485" as="sourcePoint" />
            <mxPoint x="500" y="400" as="targetPoint" />
          </mxGeometry>
        </mxCell>
        <mxCell id="-XS6p72eoRINmu8LK3qn-22" value="" style="endArrow=classic;html=1;exitX=1;exitY=1;exitDx=0;exitDy=0;" parent="1" source="-XS6p72eoRINmu8LK3qn-7" edge="1">
          <mxGeometry width="50" height="50" relative="1" as="geometry">
            <mxPoint x="670" y="760" as="sourcePoint" />
            <mxPoint x="770" y="600" as="targetPoint" />
          </mxGeometry>
        </mxCell>
        <mxCell id="-XS6p72eoRINmu8LK3qn-23" value="" style="endArrow=classic;html=1;entryX=0;entryY=0.5;entryDx=0;entryDy=0;" parent="1" target="-XS6p72eoRINmu8LK3qn-6" edge="1">
          <mxGeometry width="50" height="50" relative="1" as="geometry">
            <mxPoint x="400" y="430" as="sourcePoint" />
            <mxPoint x="460" y="390" as="targetPoint" />
          </mxGeometry>
        </mxCell>
        <mxCell id="-XS6p72eoRINmu8LK3qn-24" value="" style="endArrow=classic;html=1;entryX=0;entryY=0.5;entryDx=0;entryDy=0;" parent="1" target="-XS6p72eoRINmu8LK3qn-7" edge="1">
          <mxGeometry width="50" height="50" relative="1" as="geometry">
            <mxPoint x="410" y="485" as="sourcePoint" />
            <mxPoint x="460" y="450" as="targetPoint" />
          </mxGeometry>
        </mxCell>
        <mxCell id="-XS6p72eoRINmu8LK3qn-26" value="&lt;div&gt;Bicicleta destravada e&lt;/div&gt;&lt;div&gt; pronta para uso&lt;/div&gt;" style="ellipse;whiteSpace=wrap;html=1;fillColor=#d5e8d4;strokeColor=#82b366;" parent="1" vertex="1">
          <mxGeometry x="487.5" y="660" width="166" height="90" as="geometry" />
        </mxCell>
        <mxCell id="-XS6p72eoRINmu8LK3qn-27" value="" style="endArrow=classic;html=1;entryX=1;entryY=0.5;entryDx=0;entryDy=0;" parent="1" target="-XS6p72eoRINmu8LK3qn-26" edge="1">
          <mxGeometry width="50" height="50" relative="1" as="geometry">
            <mxPoint x="770" y="670" as="sourcePoint" />
            <mxPoint x="790" y="660" as="targetPoint" />
          </mxGeometry>
        </mxCell>
        <mxCell id="-XS6p72eoRINmu8LK3qn-28" value="" style="endArrow=classic;html=1;entryX=0;entryY=0.5;entryDx=0;entryDy=0;" parent="1" target="-XS6p72eoRINmu8LK3qn-26" edge="1">
          <mxGeometry width="50" height="50" relative="1" as="geometry">
            <mxPoint x="380" y="580" as="sourcePoint" />
            <mxPoint x="460" y="510" as="targetPoint" />
          </mxGeometry>
        </mxCell>
        <mxCell id="f48a6GGlsnbXhp9TpKju-1" value="&lt;h1&gt;&lt;font style=&quot;font-size: 48px&quot;&gt;Diagrama de casos de uso&lt;br&gt;&lt;/font&gt;&lt;/h1&gt;&lt;div&gt;&lt;font size=&quot;3&quot;&gt;Fluxograma do sistema de aluguel de biciletas&lt;br&gt;&lt;/font&gt;&lt;/div&gt;" style="text;html=1;strokeColor=none;fillColor=none;spacing=5;spacingTop=-20;whiteSpace=wrap;overflow=hidden;rounded=0;" parent="1" vertex="1">
          <mxGeometry x="140" y="50" width="620" height="120" as="geometry" />
        </mxCell>
      </root>
    </mxGraphModel>
  </diagram>
  <diagram id="JSJmO4Gk3OJTrwfEgfd1" name="Page-2">
    <mxGraphModel dx="1185" dy="669" grid="1" gridSize="10" guides="1" tooltips="1" connect="1" arrows="1" fold="1" page="1" pageScale="1" pageWidth="1169" pageHeight="827" background="#FFFFFF" math="0" shadow="0">
      <root>
        <mxCell id="wzvk0-VXNeCCySLST8T_-0" />
        <mxCell id="wzvk0-VXNeCCySLST8T_-1" parent="wzvk0-VXNeCCySLST8T_-0" />
        <mxCell id="wzvk0-VXNeCCySLST8T_-2" style="edgeStyle=orthogonalEdgeStyle;rounded=0;orthogonalLoop=1;jettySize=auto;html=1;exitX=0.5;exitY=1;exitDx=0;exitDy=0;entryX=0.5;entryY=0;entryDx=0;entryDy=0;fillColor=#f8cecc;strokeColor=#b85450;" parent="wzvk0-VXNeCCySLST8T_-1" source="wzvk0-VXNeCCySLST8T_-3" target="wzvk0-VXNeCCySLST8T_-11" edge="1">
          <mxGeometry relative="1" as="geometry" />
        </mxCell>
        <mxCell id="wzvk0-VXNeCCySLST8T_-3" value="Bicicleta" style="swimlane;fontStyle=1;align=center;verticalAlign=top;childLayout=stackLayout;horizontal=1;startSize=26;horizontalStack=0;resizeParent=1;resizeParentMax=0;resizeLast=0;collapsible=1;marginBottom=0;" parent="wzvk0-VXNeCCySLST8T_-1" vertex="1">
          <mxGeometry x="230" y="240" width="160" height="160" as="geometry" />
        </mxCell>
        <mxCell id="wzvk0-VXNeCCySLST8T_-4" value="- Modelo&#xa;- Preço&#xa;- Localização&#xa;" style="text;strokeColor=none;fillColor=none;align=left;verticalAlign=top;spacingLeft=4;spacingRight=4;overflow=hidden;rotatable=0;points=[[0,0.5],[1,0.5]];portConstraint=eastwest;" parent="wzvk0-VXNeCCySLST8T_-3" vertex="1">
          <mxGeometry y="26" width="160" height="54" as="geometry" />
        </mxCell>
        <mxCell id="wzvk0-VXNeCCySLST8T_-5" value="" style="line;strokeWidth=1;fillColor=none;align=left;verticalAlign=middle;spacingTop=-1;spacingLeft=3;spacingRight=3;rotatable=0;labelPosition=right;points=[];portConstraint=eastwest;" parent="wzvk0-VXNeCCySLST8T_-3" vertex="1">
          <mxGeometry y="80" width="160" height="8" as="geometry" />
        </mxCell>
        <mxCell id="wzvk0-VXNeCCySLST8T_-6" value="+ Obter modelo&#xa;+ Obter preço&#xa;+ Obter localização&#xa;+ Entrave de pagamento&#xa;" style="text;strokeColor=none;fillColor=none;align=left;verticalAlign=top;spacingLeft=4;spacingRight=4;overflow=hidden;rotatable=0;points=[[0,0.5],[1,0.5]];portConstraint=eastwest;" parent="wzvk0-VXNeCCySLST8T_-3" vertex="1">
          <mxGeometry y="88" width="160" height="72" as="geometry" />
        </mxCell>
        <mxCell id="wzvk0-VXNeCCySLST8T_-7" value="Usuário" style="swimlane;fontStyle=1;align=center;verticalAlign=top;childLayout=stackLayout;horizontal=1;startSize=26;horizontalStack=0;resizeParent=1;resizeParentMax=0;resizeLast=0;collapsible=1;marginBottom=0;" parent="wzvk0-VXNeCCySLST8T_-1" vertex="1">
          <mxGeometry x="570" y="240" width="186" height="230" as="geometry" />
        </mxCell>
        <mxCell id="wzvk0-VXNeCCySLST8T_-8" value="- Nome de identificação&#xa;- Métodos de pagamento&#xa;- Localização&#xa;" style="text;strokeColor=none;fillColor=none;align=left;verticalAlign=top;spacingLeft=4;spacingRight=4;overflow=hidden;rotatable=0;points=[[0,0.5],[1,0.5]];portConstraint=eastwest;" parent="wzvk0-VXNeCCySLST8T_-7" vertex="1">
          <mxGeometry y="26" width="186" height="54" as="geometry" />
        </mxCell>
        <mxCell id="wzvk0-VXNeCCySLST8T_-9" value="" style="line;strokeWidth=1;fillColor=none;align=left;verticalAlign=middle;spacingTop=-1;spacingLeft=3;spacingRight=3;rotatable=0;labelPosition=right;points=[];portConstraint=eastwest;" parent="wzvk0-VXNeCCySLST8T_-7" vertex="1">
          <mxGeometry y="80" width="186" height="8" as="geometry" />
        </mxCell>
        <mxCell id="wzvk0-VXNeCCySLST8T_-10" value="+ Obter ID&#xa;+ Obter métodos de pagamento&#xa;+ Obter localização&#xa;+ Obter modelo da bicicleta&#xa;+ Obter preço da bicicleta&#xa;+ Obter localização da bicicleta&#xa;+ Efetuar pagamento &#xa;+ Efetuar embarque&#xa;+ Efetuar desembarque&#xa;&#xa;" style="text;strokeColor=none;fillColor=none;align=left;verticalAlign=top;spacingLeft=4;spacingRight=4;overflow=hidden;rotatable=0;points=[[0,0.5],[1,0.5]];portConstraint=eastwest;" parent="wzvk0-VXNeCCySLST8T_-7" vertex="1">
          <mxGeometry y="88" width="186" height="142" as="geometry" />
        </mxCell>
        <mxCell id="wzvk0-VXNeCCySLST8T_-12" value="" style="endArrow=classic;startArrow=classic;html=1;entryX=-0.005;entryY=0.394;entryDx=0;entryDy=0;entryPerimeter=0;fillColor=#ffe6cc;strokeColor=#d79b00;" parent="wzvk0-VXNeCCySLST8T_-1" source="wzvk0-VXNeCCySLST8T_-11" target="wzvk0-VXNeCCySLST8T_-10" edge="1">
          <mxGeometry width="50" height="50" relative="1" as="geometry">
            <mxPoint x="365" y="525" as="sourcePoint" />
            <mxPoint x="435.71067811865476" y="475" as="targetPoint" />
          </mxGeometry>
        </mxCell>
        <mxCell id="wzvk0-VXNeCCySLST8T_-13" value="" style="endArrow=classic;startArrow=classic;html=1;fillColor=#ffe6cc;strokeColor=#d79b00;" parent="wzvk0-VXNeCCySLST8T_-1" edge="1">
          <mxGeometry width="50" height="50" relative="1" as="geometry">
            <mxPoint x="365.9300000000003" y="469.99985756745286" as="sourcePoint" />
            <mxPoint x="570.0000000000002" y="398" as="targetPoint" />
          </mxGeometry>
        </mxCell>
        <mxCell id="wzvk0-VXNeCCySLST8T_-14" value="" style="endArrow=classic;startArrow=classic;html=1;entryX=-0.002;entryY=0.591;entryDx=0;entryDy=0;entryPerimeter=0;exitX=1;exitY=0.677;exitDx=0;exitDy=0;exitPerimeter=0;fillColor=#ffe6cc;strokeColor=#d79b00;" parent="wzvk0-VXNeCCySLST8T_-1" source="wzvk0-VXNeCCySLST8T_-11" target="wzvk0-VXNeCCySLST8T_-10" edge="1">
          <mxGeometry width="50" height="50" relative="1" as="geometry">
            <mxPoint x="365.93" y="491.7198575674529" as="sourcePoint" />
            <mxPoint x="570" y="419.998" as="targetPoint" />
          </mxGeometry>
        </mxCell>
        <mxCell id="wzvk0-VXNeCCySLST8T_-15" style="edgeStyle=orthogonalEdgeStyle;rounded=0;orthogonalLoop=1;jettySize=auto;html=1;exitX=0.25;exitY=0;exitDx=0;exitDy=0;entryX=1.014;entryY=0.787;entryDx=0;entryDy=0;entryPerimeter=0;fillColor=#d5e8d4;strokeColor=#82b366;" parent="wzvk0-VXNeCCySLST8T_-1" source="wzvk0-VXNeCCySLST8T_-16" target="wzvk0-VXNeCCySLST8T_-6" edge="1">
          <mxGeometry relative="1" as="geometry">
            <Array as="points">
              <mxPoint x="457" y="385" />
            </Array>
          </mxGeometry>
        </mxCell>
        <mxCell id="wzvk0-VXNeCCySLST8T_-17" value="Geolocalização" style="html=1;" parent="wzvk0-VXNeCCySLST8T_-1" vertex="1">
          <mxGeometry x="430" y="640" width="110" height="50" as="geometry" />
        </mxCell>
        <mxCell id="wzvk0-VXNeCCySLST8T_-18" value="&lt;div&gt;Servidor de &lt;br&gt;&lt;/div&gt;&lt;div&gt;pagamento&lt;/div&gt;" style="html=1;" parent="wzvk0-VXNeCCySLST8T_-1" vertex="1">
          <mxGeometry x="700" y="620" width="110" height="70" as="geometry" />
        </mxCell>
        <mxCell id="wzvk0-VXNeCCySLST8T_-19" value="" style="endArrow=classic;startArrow=classic;html=1;entryX=0;entryY=0.25;entryDx=0;entryDy=0;fillColor=#f8cecc;strokeColor=#b85450;exitX=0.125;exitY=1.009;exitDx=0;exitDy=0;exitPerimeter=0;" parent="wzvk0-VXNeCCySLST8T_-1" source="wzvk0-VXNeCCySLST8T_-11" target="wzvk0-VXNeCCySLST8T_-17" edge="1">
          <mxGeometry width="50" height="50" relative="1" as="geometry">
            <mxPoint x="268" y="501" as="sourcePoint" />
            <mxPoint x="310" y="570.7106781186548" as="targetPoint" />
            <Array as="points">
              <mxPoint x="268" y="653" />
            </Array>
          </mxGeometry>
        </mxCell>
        <mxCell id="wzvk0-VXNeCCySLST8T_-20" value="" style="endArrow=classic;startArrow=classic;html=1;entryX=0;entryY=0.5;entryDx=0;entryDy=0;fillColor=#f8cecc;strokeColor=#b85450;" parent="wzvk0-VXNeCCySLST8T_-1" target="wzvk0-VXNeCCySLST8T_-16" edge="1">
          <mxGeometry width="50" height="50" relative="1" as="geometry">
            <mxPoint x="294" y="500" as="sourcePoint" />
            <mxPoint x="450" y="665" as="targetPoint" />
            <Array as="points">
              <mxPoint x="294" y="615" />
            </Array>
          </mxGeometry>
        </mxCell>
        <mxCell id="_39lkr6l1O_nI-TkL8lo-5" value="Text" style="edgeLabel;html=1;align=center;verticalAlign=middle;resizable=0;points=[];" parent="wzvk0-VXNeCCySLST8T_-20" vertex="1" connectable="0">
          <mxGeometry x="0.6994" y="1" relative="1" as="geometry">
            <mxPoint as="offset" />
          </mxGeometry>
        </mxCell>
        <mxCell id="wzvk0-VXNeCCySLST8T_-21" value="" style="endArrow=classic;startArrow=classic;html=1;entryX=0.001;entryY=0.188;entryDx=0;entryDy=0;entryPerimeter=0;exitX=0;exitY=0.75;exitDx=0;exitDy=0;fillColor=#e1d5e7;strokeColor=#9673a6;" parent="wzvk0-VXNeCCySLST8T_-1" source="wzvk0-VXNeCCySLST8T_-16" target="wzvk0-VXNeCCySLST8T_-6" edge="1">
          <mxGeometry width="50" height="50" relative="1" as="geometry">
            <mxPoint x="260" y="430" as="sourcePoint" />
            <mxPoint x="310" y="380" as="targetPoint" />
            <Array as="points">
              <mxPoint x="200" y="628" />
              <mxPoint x="200" y="342" />
            </Array>
          </mxGeometry>
        </mxCell>
        <mxCell id="wzvk0-VXNeCCySLST8T_-22" value="" style="endArrow=classic;startArrow=classic;html=1;entryX=0.001;entryY=0.363;entryDx=0;entryDy=0;entryPerimeter=0;exitX=0;exitY=0.25;exitDx=0;exitDy=0;fillColor=#e1d5e7;strokeColor=#9673a6;" parent="wzvk0-VXNeCCySLST8T_-1" source="wzvk0-VXNeCCySLST8T_-16" target="wzvk0-VXNeCCySLST8T_-6" edge="1">
          <mxGeometry width="50" height="50" relative="1" as="geometry">
            <mxPoint x="210" y="460" as="sourcePoint" />
            <mxPoint x="260" y="410" as="targetPoint" />
            <Array as="points">
              <mxPoint x="210" y="600" />
              <mxPoint x="210" y="354" />
            </Array>
          </mxGeometry>
        </mxCell>
        <mxCell id="wzvk0-VXNeCCySLST8T_-23" value="" style="endArrow=classic;startArrow=classic;html=1;entryX=-0.003;entryY=0.585;entryDx=0;entryDy=0;entryPerimeter=0;exitX=0;exitY=0.75;exitDx=0;exitDy=0;fillColor=#e1d5e7;strokeColor=#9673a6;" parent="wzvk0-VXNeCCySLST8T_-1" source="wzvk0-VXNeCCySLST8T_-17" target="wzvk0-VXNeCCySLST8T_-6" edge="1">
          <mxGeometry width="50" height="50" relative="1" as="geometry">
            <mxPoint x="230" y="420" as="sourcePoint" />
            <mxPoint x="280" y="370" as="targetPoint" />
            <Array as="points">
              <mxPoint x="220" y="678" />
              <mxPoint x="220" y="370" />
            </Array>
          </mxGeometry>
        </mxCell>
        <mxCell id="wzvk0-VXNeCCySLST8T_-24" value="" style="endArrow=classic;startArrow=classic;html=1;exitX=1.012;exitY=0.792;exitDx=0;exitDy=0;exitPerimeter=0;entryX=0.09;entryY=-0.043;entryDx=0;entryDy=0;entryPerimeter=0;fillColor=#e1d5e7;strokeColor=#9673a6;" parent="wzvk0-VXNeCCySLST8T_-1" source="wzvk0-VXNeCCySLST8T_-6" target="wzvk0-VXNeCCySLST8T_-16" edge="1">
          <mxGeometry width="50" height="50" relative="1" as="geometry">
            <mxPoint x="400" y="430" as="sourcePoint" />
            <mxPoint x="450" y="380" as="targetPoint" />
            <Array as="points">
              <mxPoint x="440" y="385" />
            </Array>
          </mxGeometry>
        </mxCell>
        <mxCell id="wzvk0-VXNeCCySLST8T_-26" value="" style="endArrow=classic;html=1;entryX=0.5;entryY=0;entryDx=0;entryDy=0;exitX=0.499;exitY=1.004;exitDx=0;exitDy=0;exitPerimeter=0;fillColor=#dae8fc;strokeColor=#6c8ebf;" parent="wzvk0-VXNeCCySLST8T_-1" source="wzvk0-VXNeCCySLST8T_-10" target="wzvk0-VXNeCCySLST8T_-25" edge="1">
          <mxGeometry width="50" height="50" relative="1" as="geometry">
            <mxPoint x="500" y="520" as="sourcePoint" />
            <mxPoint x="550" y="470" as="targetPoint" />
          </mxGeometry>
        </mxCell>
        <mxCell id="wzvk0-VXNeCCySLST8T_-27" value="" style="endArrow=classic;startArrow=classic;html=1;fillColor=#dae8fc;strokeColor=#6c8ebf;" parent="wzvk0-VXNeCCySLST8T_-1" edge="1">
          <mxGeometry width="50" height="50" relative="1" as="geometry">
            <mxPoint x="540.0000000000002" y="603" as="sourcePoint" />
            <mxPoint x="635.9999999999998" y="560" as="targetPoint" />
            <Array as="points">
              <mxPoint x="636" y="603" />
            </Array>
          </mxGeometry>
        </mxCell>
        <mxCell id="wzvk0-VXNeCCySLST8T_-28" value="" style="endArrow=classic;startArrow=classic;html=1;fillColor=#dae8fc;strokeColor=#6c8ebf;" parent="wzvk0-VXNeCCySLST8T_-1" edge="1">
          <mxGeometry width="50" height="50" relative="1" as="geometry">
            <mxPoint x="540.9999999999998" y="650" as="sourcePoint" />
            <mxPoint x="655.9999999999998" y="560" as="targetPoint" />
            <Array as="points">
              <mxPoint x="656" y="650" />
            </Array>
          </mxGeometry>
        </mxCell>
        <mxCell id="wzvk0-VXNeCCySLST8T_-29" value="" style="endArrow=classic;startArrow=classic;html=1;entryX=-0.002;entryY=0.591;entryDx=0;entryDy=0;entryPerimeter=0;exitX=1.008;exitY=0.901;exitDx=0;exitDy=0;exitPerimeter=0;fillColor=#d5e8d4;strokeColor=#82b366;" parent="wzvk0-VXNeCCySLST8T_-1" source="wzvk0-VXNeCCySLST8T_-11" edge="1">
          <mxGeometry width="50" height="50" relative="1" as="geometry">
            <mxPoint x="365" y="510.96000000000004" as="sourcePoint" />
            <mxPoint x="569.6280000000004" y="439.03200000000015" as="targetPoint" />
            <Array as="points">
              <mxPoint x="540" y="494" />
              <mxPoint x="540" y="439" />
            </Array>
          </mxGeometry>
        </mxCell>
        <mxCell id="wzvk0-VXNeCCySLST8T_-30" value="" style="endArrow=classic;startArrow=classic;html=1;entryX=-0.002;entryY=0.591;entryDx=0;entryDy=0;entryPerimeter=0;exitX=0.853;exitY=1.024;exitDx=0;exitDy=0;exitPerimeter=0;fillColor=#d5e8d4;strokeColor=#82b366;" parent="wzvk0-VXNeCCySLST8T_-1" source="wzvk0-VXNeCCySLST8T_-11" edge="1">
          <mxGeometry width="50" height="50" relative="1" as="geometry">
            <mxPoint x="366.2500000000001" y="510" as="sourcePoint" />
            <mxPoint x="569.998" y="453.98199999999997" as="targetPoint" />
            <Array as="points">
              <mxPoint x="349" y="520" />
              <mxPoint x="500" y="520" />
              <mxPoint x="550" y="520" />
              <mxPoint x="550" y="480" />
              <mxPoint x="550" y="454" />
            </Array>
          </mxGeometry>
        </mxCell>
        <mxCell id="wzvk0-VXNeCCySLST8T_-31" value="" style="endArrow=classic;html=1;entryX=0.731;entryY=-0.014;entryDx=0;entryDy=0;entryPerimeter=0;fillColor=#d5e8d4;strokeColor=#82b366;rounded=0;exitX=1.001;exitY=0.725;exitDx=0;exitDy=0;exitPerimeter=0;" parent="wzvk0-VXNeCCySLST8T_-1" source="wzvk0-VXNeCCySLST8T_-10" target="wzvk0-VXNeCCySLST8T_-18" edge="1">
          <mxGeometry width="50" height="50" relative="1" as="geometry">
            <mxPoint x="756" y="431" as="sourcePoint" />
            <mxPoint x="830" y="460" as="targetPoint" />
            <Array as="points">
              <mxPoint x="780" y="431" />
            </Array>
          </mxGeometry>
        </mxCell>
        <mxCell id="wzvk0-VXNeCCySLST8T_-32" value="" style="endArrow=classic;html=1;exitX=0;exitY=0.5;exitDx=0;exitDy=0;fillColor=#d5e8d4;strokeColor=#82b366;rounded=0;entryX=1.001;entryY=0.59;entryDx=0;entryDy=0;entryPerimeter=0;" parent="wzvk0-VXNeCCySLST8T_-1" source="wzvk0-VXNeCCySLST8T_-18" target="wzvk0-VXNeCCySLST8T_-16" edge="1">
          <mxGeometry width="50" height="50" relative="1" as="geometry">
            <mxPoint x="550" y="680" as="sourcePoint" />
            <mxPoint x="542" y="622" as="targetPoint" />
            <Array as="points">
              <mxPoint x="620" y="655" />
              <mxPoint x="620" y="620" />
            </Array>
          </mxGeometry>
        </mxCell>
        <mxCell id="wzvk0-VXNeCCySLST8T_-33" value="" style="endArrow=classic;html=1;exitX=0.528;exitY=1.002;exitDx=0;exitDy=0;exitPerimeter=0;entryX=0.54;entryY=0.002;entryDx=0;entryDy=0;entryPerimeter=0;fillColor=#d5e8d4;strokeColor=#82b366;" parent="wzvk0-VXNeCCySLST8T_-1" source="wzvk0-VXNeCCySLST8T_-6" target="wzvk0-VXNeCCySLST8T_-11" edge="1">
          <mxGeometry width="50" height="50" relative="1" as="geometry">
            <mxPoint x="450" y="450" as="sourcePoint" />
            <mxPoint x="500" y="400" as="targetPoint" />
          </mxGeometry>
        </mxCell>
        <mxCell id="wzvk0-VXNeCCySLST8T_-34" value="" style="endArrow=classic;html=1;entryX=0.012;entryY=0.39;entryDx=0;entryDy=0;fillColor=#d5e8d4;strokeColor=#82b366;entryPerimeter=0;" parent="wzvk0-VXNeCCySLST8T_-1" target="wzvk0-VXNeCCySLST8T_-25" edge="1">
          <mxGeometry width="50" height="50" relative="1" as="geometry">
            <mxPoint x="540.0000000000002" y="490" as="sourcePoint" />
            <mxPoint x="608" y="522.5" as="targetPoint" />
          </mxGeometry>
        </mxCell>
        <mxCell id="wzvk0-VXNeCCySLST8T_-35" value="" style="endArrow=classic;html=1;entryX=0;entryY=0.25;entryDx=0;entryDy=0;fillColor=#d5e8d4;strokeColor=#82b366;" parent="wzvk0-VXNeCCySLST8T_-1" edge="1">
          <mxGeometry width="50" height="50" relative="1" as="geometry">
            <mxPoint x="550.0000000000002" y="510" as="sourcePoint" />
            <mxPoint x="608" y="542.5" as="targetPoint" />
          </mxGeometry>
        </mxCell>
        <mxCell id="wzvk0-VXNeCCySLST8T_-16" value="Servidor" style="html=1;" parent="wzvk0-VXNeCCySLST8T_-1" vertex="1">
          <mxGeometry x="430" y="590" width="110" height="50" as="geometry" />
        </mxCell>
        <mxCell id="wzvk0-VXNeCCySLST8T_-25" value="Usuário_01" style="html=1;" parent="wzvk0-VXNeCCySLST8T_-1" vertex="1">
          <mxGeometry x="608" y="510" width="110" height="50" as="geometry" />
        </mxCell>
        <mxCell id="wzvk0-VXNeCCySLST8T_-11" value="Caloi" style="html=1;" parent="wzvk0-VXNeCCySLST8T_-1" vertex="1">
          <mxGeometry x="255" y="450" width="110" height="50" as="geometry" />
        </mxCell>
        <mxCell id="_39lkr6l1O_nI-TkL8lo-0" value="&lt;h1&gt;&lt;font style=&quot;font-size: 48px&quot;&gt;Diagrama de classes&lt;/font&gt;&lt;/h1&gt;&lt;div&gt;&lt;font size=&quot;3&quot;&gt;Fluxograma do sistema de aluguel de biciletas&lt;br&gt;&lt;/font&gt;&lt;/div&gt;" style="text;html=1;strokeColor=none;fillColor=none;spacing=5;spacingTop=-20;whiteSpace=wrap;overflow=hidden;rounded=0;" parent="wzvk0-VXNeCCySLST8T_-1" vertex="1">
          <mxGeometry x="140" y="50" width="580" height="120" as="geometry" />
        </mxCell>
        <mxCell id="_39lkr6l1O_nI-TkL8lo-4" value="&lt;div align=&quot;left&quot;&gt;&lt;b&gt;&lt;font style=&quot;font-size: 17px&quot;&gt;Legenda&lt;/font&gt;&lt;/b&gt;&lt;/div&gt;&lt;div align=&quot;left&quot;&gt;&lt;font color=&quot;#D79B00&quot;&gt;■ &lt;/font&gt;Relações não instanciadas&lt;/div&gt;&lt;div align=&quot;left&quot;&gt;&lt;font color=&quot;#7EA6E0&quot;&gt;■ &lt;/font&gt;Usuário&lt;/div&gt;&lt;div align=&quot;left&quot;&gt;&lt;font color=&quot;#B85450&quot;&gt;■ &lt;/font&gt;Modelo de bicicleta&lt;/div&gt;&lt;div align=&quot;left&quot;&gt;&lt;font color=&quot;#B85450&quot;&gt;&lt;font color=&quot;#A680B8&quot;&gt;■ &lt;/font&gt;&lt;font color=&quot;#000000&quot;&gt;Exemplo de acessos de métodos&lt;/font&gt;&lt;br&gt;&lt;/font&gt;&lt;/div&gt;&lt;div align=&quot;left&quot;&gt;&lt;font color=&quot;#97D077&quot;&gt;■ &lt;/font&gt;Fluxo de pagamento e aluguel &lt;br&gt;&lt;/div&gt;" style="text;html=1;strokeColor=none;fillColor=none;align=left;verticalAlign=middle;whiteSpace=wrap;rounded=0;" parent="wzvk0-VXNeCCySLST8T_-1" vertex="1">
          <mxGeometry x="830" y="310" width="200" height="110" as="geometry" />
        </mxCell>
      </root>
    </mxGraphModel>
  </diagram>
  <diagram id="nIvb77wSBGQ8h8NPOayo" name="Page-3">
    <mxGraphModel dx="981" dy="554" grid="1" gridSize="10" guides="1" tooltips="1" connect="1" arrows="1" fold="1" page="1" pageScale="1" pageWidth="1169" pageHeight="827" background="#FFFFFF" math="0" shadow="0">
      <root>
        <mxCell id="j_PjaN5JP718FiSTH7IA-0" />
        <mxCell id="j_PjaN5JP718FiSTH7IA-1" parent="j_PjaN5JP718FiSTH7IA-0" />
        <mxCell id="j_PjaN5JP718FiSTH7IA-2" value="&lt;h1&gt;&lt;font style=&quot;font-size: 48px&quot;&gt;Diagrama de atividades ‒ Pagamento&lt;br&gt;&lt;/font&gt;&lt;/h1&gt;&lt;div&gt;&lt;font size=&quot;3&quot;&gt;Fluxograma do sistema de aluguel de biciletas&lt;br&gt;&lt;/font&gt;&lt;/div&gt;" style="text;html=1;strokeColor=none;fillColor=none;spacing=5;spacingTop=-20;whiteSpace=wrap;overflow=hidden;rounded=0;" vertex="1" parent="j_PjaN5JP718FiSTH7IA-1">
          <mxGeometry x="141" y="50" width="870" height="120" as="geometry" />
        </mxCell>
        <mxCell id="_teLqa0npExFNLtGZ0HH-2" value="" style="edgeStyle=orthogonalEdgeStyle;rounded=0;orthogonalLoop=1;jettySize=auto;html=1;" edge="1" parent="j_PjaN5JP718FiSTH7IA-1" source="_teLqa0npExFNLtGZ0HH-0" target="_teLqa0npExFNLtGZ0HH-1">
          <mxGeometry relative="1" as="geometry" />
        </mxCell>
        <mxCell id="_teLqa0npExFNLtGZ0HH-0" value="Geolocalização" style="rounded=0;whiteSpace=wrap;html=1;" vertex="1" parent="j_PjaN5JP718FiSTH7IA-1">
          <mxGeometry x="223.99" y="220" width="120" height="60" as="geometry" />
        </mxCell>
        <mxCell id="H7e5OzXqnQhMJJbftTOo-0" style="edgeStyle=orthogonalEdgeStyle;rounded=0;orthogonalLoop=1;jettySize=auto;html=1;exitX=0.25;exitY=1;exitDx=0;exitDy=0;entryX=0.25;entryY=0;entryDx=0;entryDy=0;" edge="1" parent="j_PjaN5JP718FiSTH7IA-1" source="_teLqa0npExFNLtGZ0HH-1" target="dkrGNI-65rrLTSj2xbQO-0">
          <mxGeometry relative="1" as="geometry" />
        </mxCell>
        <mxCell id="H7e5OzXqnQhMJJbftTOo-1" style="edgeStyle=orthogonalEdgeStyle;rounded=0;orthogonalLoop=1;jettySize=auto;html=1;exitX=0.75;exitY=1;exitDx=0;exitDy=0;entryX=0.5;entryY=0;entryDx=0;entryDy=0;" edge="1" parent="j_PjaN5JP718FiSTH7IA-1" source="_teLqa0npExFNLtGZ0HH-1" target="H7e5OzXqnQhMJJbftTOo-2">
          <mxGeometry relative="1" as="geometry">
            <mxPoint x="283.98999999999995" y="530" as="targetPoint" />
            <Array as="points">
              <mxPoint x="313.98999999999995" y="360" />
              <mxPoint x="383.98999999999995" y="360" />
              <mxPoint x="383.98999999999995" y="500" />
              <mxPoint x="283.98999999999995" y="500" />
            </Array>
          </mxGeometry>
        </mxCell>
        <mxCell id="xwFlCAS1BXRfp2sUYsJN-5" style="edgeStyle=orthogonalEdgeStyle;rounded=0;orthogonalLoop=1;jettySize=auto;html=1;exitX=1;exitY=0.5;exitDx=0;exitDy=0;entryX=0;entryY=0.5;entryDx=0;entryDy=0;" edge="1" parent="j_PjaN5JP718FiSTH7IA-1" source="_teLqa0npExFNLtGZ0HH-1" target="xwFlCAS1BXRfp2sUYsJN-4">
          <mxGeometry relative="1" as="geometry" />
        </mxCell>
        <mxCell id="_teLqa0npExFNLtGZ0HH-1" value="Pagamento" style="rounded=0;whiteSpace=wrap;html=1;" vertex="1" parent="j_PjaN5JP718FiSTH7IA-1">
          <mxGeometry x="223.99" y="310" width="120" height="60" as="geometry" />
        </mxCell>
        <mxCell id="H7e5OzXqnQhMJJbftTOo-4" style="edgeStyle=orthogonalEdgeStyle;rounded=0;orthogonalLoop=1;jettySize=auto;html=1;exitX=0.5;exitY=0;exitDx=0;exitDy=0;entryX=0.5;entryY=1;entryDx=0;entryDy=0;" edge="1" parent="j_PjaN5JP718FiSTH7IA-1" source="dkrGNI-65rrLTSj2xbQO-0" target="_teLqa0npExFNLtGZ0HH-1">
          <mxGeometry relative="1" as="geometry" />
        </mxCell>
        <mxCell id="dkrGNI-65rrLTSj2xbQO-0" value="Login" style="rounded=0;whiteSpace=wrap;html=1;" vertex="1" parent="j_PjaN5JP718FiSTH7IA-1">
          <mxGeometry x="223.99" y="400" width="120" height="60" as="geometry" />
        </mxCell>
        <mxCell id="H7e5OzXqnQhMJJbftTOo-2" value="Bicicleta destravada" style="rounded=0;whiteSpace=wrap;html=1;fillColor=#d5e8d4;strokeColor=#82b366;" vertex="1" parent="j_PjaN5JP718FiSTH7IA-1">
          <mxGeometry x="223.99" y="540" width="120" height="60" as="geometry" />
        </mxCell>
        <mxCell id="xwFlCAS1BXRfp2sUYsJN-1" style="edgeStyle=orthogonalEdgeStyle;rounded=0;orthogonalLoop=1;jettySize=auto;html=1;entryX=0;entryY=0.5;entryDx=0;entryDy=0;" edge="1" parent="j_PjaN5JP718FiSTH7IA-1" source="xwFlCAS1BXRfp2sUYsJN-0" target="dkrGNI-65rrLTSj2xbQO-0">
          <mxGeometry relative="1" as="geometry" />
        </mxCell>
        <mxCell id="xwFlCAS1BXRfp2sUYsJN-0" value="" style="shape=umlActor;verticalLabelPosition=bottom;verticalAlign=top;html=1;outlineConnect=0;" vertex="1" parent="j_PjaN5JP718FiSTH7IA-1">
          <mxGeometry x="163.99" y="400" width="30" height="60" as="geometry" />
        </mxCell>
        <mxCell id="xwFlCAS1BXRfp2sUYsJN-11" style="edgeStyle=orthogonalEdgeStyle;rounded=0;orthogonalLoop=1;jettySize=auto;html=1;exitX=0.5;exitY=0;exitDx=0;exitDy=0;entryX=0.25;entryY=0;entryDx=0;entryDy=0;" edge="1" parent="j_PjaN5JP718FiSTH7IA-1" source="xwFlCAS1BXRfp2sUYsJN-4" target="xwFlCAS1BXRfp2sUYsJN-6">
          <mxGeometry relative="1" as="geometry">
            <Array as="points">
              <mxPoint x="519" y="310" />
              <mxPoint x="674" y="310" />
            </Array>
          </mxGeometry>
        </mxCell>
        <mxCell id="xwFlCAS1BXRfp2sUYsJN-12" value="Boleto" style="edgeLabel;html=1;align=center;verticalAlign=middle;resizable=0;points=[];" vertex="1" connectable="0" parent="xwFlCAS1BXRfp2sUYsJN-11">
          <mxGeometry x="-0.026" y="-2" relative="1" as="geometry">
            <mxPoint x="-46.379999999999995" y="-17" as="offset" />
          </mxGeometry>
        </mxCell>
        <mxCell id="xwFlCAS1BXRfp2sUYsJN-15" style="edgeStyle=orthogonalEdgeStyle;rounded=0;orthogonalLoop=1;jettySize=auto;html=1;entryX=0.5;entryY=0;entryDx=0;entryDy=0;exitX=1;exitY=0.5;exitDx=0;exitDy=0;" edge="1" parent="j_PjaN5JP718FiSTH7IA-1" source="xwFlCAS1BXRfp2sUYsJN-4" target="xwFlCAS1BXRfp2sUYsJN-17">
          <mxGeometry relative="1" as="geometry">
            <mxPoint x="613.9899999999998" y="410.0000000000002" as="targetPoint" />
            <Array as="points">
              <mxPoint x="618.99" y="340" />
            </Array>
          </mxGeometry>
        </mxCell>
        <mxCell id="xwFlCAS1BXRfp2sUYsJN-25" style="edgeStyle=orthogonalEdgeStyle;rounded=0;orthogonalLoop=1;jettySize=auto;html=1;exitX=0.5;exitY=1;exitDx=0;exitDy=0;entryX=1;entryY=0.5;entryDx=0;entryDy=0;" edge="1" parent="j_PjaN5JP718FiSTH7IA-1" source="xwFlCAS1BXRfp2sUYsJN-4" target="xwFlCAS1BXRfp2sUYsJN-14">
          <mxGeometry relative="1" as="geometry">
            <Array as="points">
              <mxPoint x="518.99" y="610" />
              <mxPoint x="977.99" y="610" />
              <mxPoint x="977.99" y="440" />
            </Array>
          </mxGeometry>
        </mxCell>
        <mxCell id="xwFlCAS1BXRfp2sUYsJN-26" value="NFC" style="edgeLabel;html=1;align=center;verticalAlign=middle;resizable=0;points=[];" vertex="1" connectable="0" parent="xwFlCAS1BXRfp2sUYsJN-25">
          <mxGeometry x="-0.7273" y="1" relative="1" as="geometry">
            <mxPoint x="-32" y="-106.6" as="offset" />
          </mxGeometry>
        </mxCell>
        <mxCell id="xwFlCAS1BXRfp2sUYsJN-4" value="&lt;div&gt;Escolher método &lt;br&gt;&lt;/div&gt;&lt;div&gt;de pagamento&lt;/div&gt;" style="rhombus;whiteSpace=wrap;html=1;fillColor=#fff2cc;strokeColor=#d6b656;" vertex="1" parent="j_PjaN5JP718FiSTH7IA-1">
          <mxGeometry x="443.98999999999995" y="295" width="150" height="90" as="geometry" />
        </mxCell>
        <mxCell id="xwFlCAS1BXRfp2sUYsJN-9" style="edgeStyle=orthogonalEdgeStyle;rounded=0;orthogonalLoop=1;jettySize=auto;html=1;exitX=0.5;exitY=0;exitDx=0;exitDy=0;entryX=1;entryY=0.25;entryDx=0;entryDy=0;" edge="1" parent="j_PjaN5JP718FiSTH7IA-1" source="xwFlCAS1BXRfp2sUYsJN-6" target="_teLqa0npExFNLtGZ0HH-1">
          <mxGeometry relative="1" as="geometry">
            <Array as="points">
              <mxPoint x="703.99" y="260" />
              <mxPoint x="403.98999999999995" y="260" />
              <mxPoint x="403.98999999999995" y="325" />
            </Array>
          </mxGeometry>
        </mxCell>
        <mxCell id="xwFlCAS1BXRfp2sUYsJN-33" value="&lt;div&gt;Código &lt;br&gt;&lt;/div&gt;&lt;div&gt;de boleto&lt;/div&gt;&lt;div&gt;gerado&lt;br&gt;&lt;/div&gt;" style="edgeLabel;html=1;align=center;verticalAlign=middle;resizable=0;points=[];" vertex="1" connectable="0" parent="xwFlCAS1BXRfp2sUYsJN-9">
          <mxGeometry x="-0.7962" y="2" relative="1" as="geometry">
            <mxPoint x="36" y="-2.62" as="offset" />
          </mxGeometry>
        </mxCell>
        <mxCell id="xwFlCAS1BXRfp2sUYsJN-6" value="Gerar boleto" style="rounded=0;whiteSpace=wrap;html=1;" vertex="1" parent="j_PjaN5JP718FiSTH7IA-1">
          <mxGeometry x="643.99" y="350" width="120" height="60" as="geometry" />
        </mxCell>
        <mxCell id="xwFlCAS1BXRfp2sUYsJN-7" value="&lt;div&gt;Informações da &lt;br&gt;&lt;/div&gt;&lt;div&gt;compra&lt;/div&gt;" style="rounded=1;whiteSpace=wrap;html=1;fillColor=#f8cecc;strokeColor=#b85450;" vertex="1" parent="j_PjaN5JP718FiSTH7IA-1">
          <mxGeometry x="843.99" y="350" width="120" height="60" as="geometry" />
        </mxCell>
        <mxCell id="xwFlCAS1BXRfp2sUYsJN-8" value="" style="endArrow=classic;startArrow=classic;html=1;entryX=0;entryY=0.75;entryDx=0;entryDy=0;exitX=1;exitY=0.75;exitDx=0;exitDy=0;" edge="1" parent="j_PjaN5JP718FiSTH7IA-1" source="xwFlCAS1BXRfp2sUYsJN-6" target="xwFlCAS1BXRfp2sUYsJN-7">
          <mxGeometry width="50" height="50" relative="1" as="geometry">
            <mxPoint x="863.99" y="330" as="sourcePoint" />
            <mxPoint x="913.99" y="280" as="targetPoint" />
          </mxGeometry>
        </mxCell>
        <mxCell id="xwFlCAS1BXRfp2sUYsJN-24" style="edgeStyle=orthogonalEdgeStyle;rounded=0;orthogonalLoop=1;jettySize=auto;html=1;exitX=0.5;exitY=0;exitDx=0;exitDy=0;entryX=1;entryY=0.25;entryDx=0;entryDy=0;" edge="1" parent="j_PjaN5JP718FiSTH7IA-1" source="xwFlCAS1BXRfp2sUYsJN-13" target="_teLqa0npExFNLtGZ0HH-1">
          <mxGeometry relative="1" as="geometry">
            <Array as="points">
              <mxPoint x="903.99" y="260" />
              <mxPoint x="403.98999999999995" y="260" />
              <mxPoint x="403.98999999999995" y="325" />
            </Array>
          </mxGeometry>
        </mxCell>
        <mxCell id="xwFlCAS1BXRfp2sUYsJN-32" value="&lt;div&gt;Compra &lt;br&gt;&lt;/div&gt;&lt;div&gt;efetuada&lt;br&gt;&lt;/div&gt;" style="edgeLabel;html=1;align=center;verticalAlign=middle;resizable=0;points=[];" vertex="1" connectable="0" parent="xwFlCAS1BXRfp2sUYsJN-24">
          <mxGeometry x="-0.8846" y="-1" relative="1" as="geometry">
            <mxPoint x="-37" as="offset" />
          </mxGeometry>
        </mxCell>
        <mxCell id="xwFlCAS1BXRfp2sUYsJN-13" value="Servidor" style="rounded=1;whiteSpace=wrap;html=1;fillColor=#e1d5e7;strokeColor=#9673a6;" vertex="1" parent="j_PjaN5JP718FiSTH7IA-1">
          <mxGeometry x="843.99" y="330" width="120" height="20" as="geometry" />
        </mxCell>
        <mxCell id="xwFlCAS1BXRfp2sUYsJN-27" style="edgeStyle=orthogonalEdgeStyle;rounded=0;orthogonalLoop=1;jettySize=auto;html=1;exitX=1;exitY=0.25;exitDx=0;exitDy=0;entryX=1;entryY=0.5;entryDx=0;entryDy=0;startArrow=classic;startFill=1;" edge="1" parent="j_PjaN5JP718FiSTH7IA-1" source="xwFlCAS1BXRfp2sUYsJN-14" target="xwFlCAS1BXRfp2sUYsJN-29">
          <mxGeometry relative="1" as="geometry">
            <mxPoint x="1017.99" y="710" as="targetPoint" />
            <Array as="points">
              <mxPoint x="987.99" y="425" />
              <mxPoint x="987.99" y="660" />
            </Array>
          </mxGeometry>
        </mxCell>
        <mxCell id="xwFlCAS1BXRfp2sUYsJN-28" style="edgeStyle=orthogonalEdgeStyle;rounded=0;orthogonalLoop=1;jettySize=auto;html=1;exitX=0.5;exitY=1;exitDx=0;exitDy=0;entryX=0.5;entryY=0;entryDx=0;entryDy=0;" edge="1" parent="j_PjaN5JP718FiSTH7IA-1" source="xwFlCAS1BXRfp2sUYsJN-14" target="xwFlCAS1BXRfp2sUYsJN-20">
          <mxGeometry relative="1" as="geometry" />
        </mxCell>
        <mxCell id="xwFlCAS1BXRfp2sUYsJN-14" value="&lt;div&gt;Informações do &lt;br&gt;&lt;/div&gt;&lt;div&gt;usuário&lt;br&gt; &lt;/div&gt;" style="rounded=1;whiteSpace=wrap;html=1;fillColor=#dae8fc;strokeColor=#6c8ebf;" vertex="1" parent="j_PjaN5JP718FiSTH7IA-1">
          <mxGeometry x="843.99" y="410" width="120" height="60" as="geometry" />
        </mxCell>
        <mxCell id="xwFlCAS1BXRfp2sUYsJN-19" style="edgeStyle=orthogonalEdgeStyle;rounded=0;orthogonalLoop=1;jettySize=auto;html=1;exitX=1;exitY=0.5;exitDx=0;exitDy=0;entryX=0;entryY=0.544;entryDx=0;entryDy=0;entryPerimeter=0;" edge="1" parent="j_PjaN5JP718FiSTH7IA-1" source="xwFlCAS1BXRfp2sUYsJN-17" target="xwFlCAS1BXRfp2sUYsJN-14">
          <mxGeometry relative="1" as="geometry">
            <Array as="points">
              <mxPoint x="777.99" y="465" />
              <mxPoint x="777.99" y="443" />
            </Array>
          </mxGeometry>
        </mxCell>
        <mxCell id="xwFlCAS1BXRfp2sUYsJN-21" style="edgeStyle=orthogonalEdgeStyle;rounded=0;orthogonalLoop=1;jettySize=auto;html=1;exitX=1;exitY=0.5;exitDx=0;exitDy=0;entryX=0.375;entryY=0;entryDx=0;entryDy=0;" edge="1" parent="j_PjaN5JP718FiSTH7IA-1" source="xwFlCAS1BXRfp2sUYsJN-17" target="xwFlCAS1BXRfp2sUYsJN-20">
          <mxGeometry relative="1" as="geometry">
            <Array as="points">
              <mxPoint x="777.99" y="465" />
              <mxPoint x="777.99" y="488" />
              <mxPoint x="888.99" y="488" />
            </Array>
          </mxGeometry>
        </mxCell>
        <mxCell id="xwFlCAS1BXRfp2sUYsJN-17" value="&lt;div&gt;Crédito ou&lt;/div&gt;&lt;div&gt;débito&lt;br&gt;&lt;/div&gt;" style="rhombus;whiteSpace=wrap;html=1;fillColor=#fff2cc;strokeColor=#d6b656;" vertex="1" parent="j_PjaN5JP718FiSTH7IA-1">
          <mxGeometry x="543.99" y="420" width="150" height="90" as="geometry" />
        </mxCell>
        <mxCell id="xwFlCAS1BXRfp2sUYsJN-18" value="Cartão" style="text;html=1;align=center;verticalAlign=middle;resizable=0;points=[];autosize=1;" vertex="1" parent="j_PjaN5JP718FiSTH7IA-1">
          <mxGeometry x="563.99" y="365" width="50" height="20" as="geometry" />
        </mxCell>
        <mxCell id="xwFlCAS1BXRfp2sUYsJN-23" style="edgeStyle=orthogonalEdgeStyle;rounded=0;orthogonalLoop=1;jettySize=auto;html=1;exitX=0.625;exitY=0;exitDx=0;exitDy=0;entryX=0.624;entryY=1;entryDx=0;entryDy=0;entryPerimeter=0;" edge="1" parent="j_PjaN5JP718FiSTH7IA-1" source="xwFlCAS1BXRfp2sUYsJN-20" target="xwFlCAS1BXRfp2sUYsJN-14">
          <mxGeometry relative="1" as="geometry" />
        </mxCell>
        <mxCell id="xwFlCAS1BXRfp2sUYsJN-20" value="Servidor externo do banco escolhido" style="shape=hexagon;perimeter=hexagonPerimeter2;whiteSpace=wrap;html=1;fixedSize=1;fillColor=#e1d5e7;strokeColor=#9673a6;" vertex="1" parent="j_PjaN5JP718FiSTH7IA-1">
          <mxGeometry x="843.99" y="510" width="120" height="80" as="geometry" />
        </mxCell>
        <mxCell id="xwFlCAS1BXRfp2sUYsJN-29" value="&lt;div&gt;Sensor de &lt;br&gt;&lt;/div&gt;&lt;div&gt;proximidade aguarda dispositivo NFC&lt;/div&gt;" style="rounded=1;whiteSpace=wrap;html=1;fillColor=#ffe6cc;strokeColor=#d79b00;" vertex="1" parent="j_PjaN5JP718FiSTH7IA-1">
          <mxGeometry x="843.99" y="630" width="120" height="60" as="geometry" />
        </mxCell>
        <mxCell id="xwFlCAS1BXRfp2sUYsJN-31" style="edgeStyle=orthogonalEdgeStyle;rounded=0;orthogonalLoop=1;jettySize=auto;html=1;entryX=0;entryY=0.5;entryDx=0;entryDy=0;" edge="1" parent="j_PjaN5JP718FiSTH7IA-1" source="xwFlCAS1BXRfp2sUYsJN-30" target="xwFlCAS1BXRfp2sUYsJN-29">
          <mxGeometry relative="1" as="geometry" />
        </mxCell>
        <mxCell id="xwFlCAS1BXRfp2sUYsJN-30" value="" style="shape=umlActor;verticalLabelPosition=bottom;verticalAlign=top;html=1;outlineConnect=0;" vertex="1" parent="j_PjaN5JP718FiSTH7IA-1">
          <mxGeometry x="777.99" y="630" width="30" height="60" as="geometry" />
        </mxCell>
      </root>
    </mxGraphModel>
  </diagram>
</mxfile>
